<svg width="33" height="37" viewBox="0 0 33 37" fill="none" xmlns="http://www.w3.org/2000/svg">
<path d="M22.4263 24.3496C24.5296 23.9126 26.438 23.1546 27.9216 22.0419C30.4552 20.1418 31.75 17.2071 31.75 14.3076C31.75 12.2735 30.9789 10.3746 29.6438 8.76613C28.8999 7.86986 31.0758 1.18258 29.1425 2.08322C27.2092 2.98385 24.3744 4.97737 22.8885 4.53741C21.2977 4.06637 19.5641 3.80758 17.75 3.80758C16.1743 3.80758 14.6594 4.00281 13.246 4.36278C11.1915 4.886 9.22671 2.93258 7.25 2.08322C5.27325 1.23385 6.3519 8.15048 5.76477 8.87778C4.48604 10.4621 3.75 12.3204 3.75 14.3076C3.75 17.2071 5.317 20.1418 7.85051 22.0419C9.53821 23.3077 11.6548 24.1143 14.0226 24.5118" stroke="#1E293B" stroke-width="2.5" stroke-linecap="round"/>
<path d="M14.0224 24.5117C13.0088 25.6274 12.502 26.6869 12.502 27.6902C12.502 28.6934 12.502 31.2357 12.502 35.3168" stroke="#1E293B" stroke-width="2.5" stroke-linecap="round"/>
<path d="M22.4268 24.3496C23.3872 25.6103 23.8675 26.7422 23.8675 27.7455C23.8675 28.7488 23.8675 31.2725 23.8675 35.3169" stroke="#1E293B" stroke-width="2.5" stroke-linecap="round"/>
<path d="M2 24.9961C2.78651 25.0923 3.36985 25.4539 3.75 26.081C4.32023 27.0215 6.43992 30.5108 8.84696 30.5108C10.4517 30.5108 11.6701 30.5108 12.5021 30.5108" stroke="#1E293B" stroke-width="2.5" stroke-linecap="round"/>
</svg>
