<svg width="39" height="40" viewBox="0 0 39 40" fill="none" xmlns="http://www.w3.org/2000/svg">
<path d="M36.1359 0.6C36.5057 0.6 36.7834 0.659037 37.0168 0.755327C37.2652 0.889419 37.5312 1.03528 37.7206 1.20697C37.7422 1.23324 37.7649 1.25623 37.7877 1.27631C38.1633 1.67168 38.327 2.20277 38.4 2.83732V14.0625C38.4 15.2922 37.4184 16.275 36.2143 16.275C35.0102 16.275 34.0286 15.2922 34.0286 14.0625V9.60645V8.14867L33.0024 9.18409L18.2555 24.064L18.2554 24.0641C17.402 24.9257 16.0266 24.9257 15.1732 24.0641C14.3166 23.1993 14.3166 21.8007 15.1732 20.9359L15.1733 20.9358L29.9115 6.0471L30.9232 5.025H29.485H25.0714C23.8677 5.025 22.8857 4.03995 22.8857 2.8125C22.8857 1.58505 23.8677 0.6 25.0714 0.6H36.1359ZM5.57143 7.8375H4.97143V8.4375V33.75V34.35H5.57143H30.6429H31.2429V33.75V25.3125C31.2429 24.0828 32.2245 23.1 33.4286 23.1C34.6327 23.1 35.6143 24.0828 35.6143 25.3125V33.75C35.6143 36.5266 33.3791 38.775 30.6429 38.775H5.57143C2.83116 38.775 0.6 36.5269 0.6 33.75V8.4375C0.6 5.65651 2.83086 3.4125 5.57143 3.4125H13.9286C15.1323 3.4125 16.1143 4.39755 16.1143 5.625C16.1143 6.85472 15.1326 7.8375 13.9286 7.8375H5.57143Z" fill="#1E293B" stroke="white" stroke-width="1.2"/>
</svg>
